<svg width="134" height="54" viewBox="0 0 134 54" fill="none" xmlns="http://www.w3.org/2000/svg">
<path d="M25.3953 1.09155L0.921143 11.6155" stroke="black" stroke-width="1.46961"/>
<path d="M49.1363 11.6944L24.8806 1.07593" stroke="black" stroke-width="1.46961"/>
<path d="M1.14014 11.1272V28.977" stroke="black" stroke-width="1.46961"/>
<path d="M24.912 52.7662L0.952881 42.4155" stroke="black" stroke-width="1.46961"/>
<path d="M49.1513 42.2896L24.5522 52.7662" stroke="black" stroke-width="1.46961"/>
<path d="M24.7714 38.8076L0.812256 28.4412" stroke="black" stroke-width="1.46961"/>
<path d="M48.5122 28.2839L24.4751 38.9024" stroke="black" stroke-width="1.46961"/>
<path d="M48.7925 27.7639V42.7936" stroke="black" stroke-width="1.46961"/>
<path d="M24.7246 52.924V14.9558" stroke="black" stroke-width="1.46961"/>
<path d="M10.7393 14.6877H38.6317" stroke="black" stroke-width="1.46961"/>
<path d="M0.5 42.4471L7.35215 39.1702" stroke="black" stroke-width="1.46961"/>
<path d="M48.8398 11.2219V18.1381" stroke="black" stroke-width="1.46961"/>
<path d="M48.8237 21.1154C49.2116 21.1154 49.5261 20.798 49.5261 20.4065C49.5261 20.0149 49.2116 19.6975 48.8237 19.6975C48.4358 19.6975 48.1213 20.0149 48.1213 20.4065C48.1213 20.798 48.4358 21.1154 48.8237 21.1154Z" fill="black"/>
<path d="M65.5083 6.80555C65.3703 6.64907 65.2092 6.51101 65.0251 6.39135C64.841 6.26249 64.6339 6.15203 64.4038 6.05999C64.1737 5.96795 63.9252 5.89431 63.6583 5.83908C63.4005 5.78386 63.1244 5.75624 62.8299 5.75624C61.9738 5.75624 61.3433 5.92192 60.9384 6.25328C60.5426 6.57544 60.3447 7.01725 60.3447 7.57872C60.3447 7.9653 60.4367 8.26905 60.6208 8.48996C60.8141 8.71086 61.1132 8.89035 61.5182 9.02842C61.9232 9.16648 62.4387 9.30915 63.0646 9.45642C63.7641 9.60369 64.367 9.77858 64.8732 9.98107C65.3795 10.1836 65.7707 10.4597 66.0468 10.8095C66.3229 11.15 66.461 11.6149 66.461 12.2039C66.461 12.655 66.3736 13.0461 66.1987 13.3775C66.0238 13.7089 65.7799 13.985 65.4669 14.2059C65.154 14.4268 64.7812 14.5925 64.3486 14.7029C63.916 14.8042 63.442 14.8548 62.9265 14.8548C62.4203 14.8548 61.9324 14.8042 61.463 14.7029C61.0028 14.5925 60.5656 14.436 60.1514 14.2335C59.7372 14.0218 59.3506 13.7549 58.9916 13.4327L59.4748 12.6458C59.6497 12.8298 59.8568 13.0047 60.0961 13.1704C60.3447 13.3269 60.6162 13.4695 60.9107 13.5984C61.2145 13.7273 61.5366 13.8285 61.8772 13.9022C62.227 13.9666 62.5859 13.9988 62.9541 13.9988C63.7365 13.9988 64.344 13.8561 64.7766 13.5708C65.2184 13.2855 65.4393 12.8621 65.4393 12.3006C65.4393 11.8956 65.3289 11.5734 65.108 11.3341C64.887 11.0856 64.5557 10.8831 64.1139 10.7266C63.6721 10.5702 63.129 10.4183 62.4847 10.271C61.8036 10.1145 61.2283 9.93965 60.7589 9.74636C60.2894 9.55307 59.9351 9.29995 59.6958 8.987C59.4656 8.66484 59.3506 8.24144 59.3506 7.71679C59.3506 7.10929 59.4979 6.59845 59.7924 6.18425C60.0961 5.76085 60.5103 5.44329 61.035 5.23159C61.5596 5.01069 62.1625 4.90023 62.8437 4.90023C63.2763 4.90023 63.6767 4.94626 64.0448 5.0383C64.4222 5.12114 64.7674 5.2454 65.0803 5.41108C65.4025 5.57676 65.7016 5.78386 65.9778 6.03238L65.5083 6.80555ZM71.3021 14.4268C71.2284 14.4544 71.1134 14.505 70.9569 14.5787C70.8004 14.6523 70.6117 14.7167 70.3908 14.772C70.1699 14.8272 69.9306 14.8548 69.6729 14.8548C69.4059 14.8548 69.1528 14.8042 68.9135 14.7029C68.6834 14.6017 68.4993 14.4498 68.3612 14.2473C68.2232 14.0356 68.1541 13.7779 68.1541 13.4741V8.32428H67.1601V7.57872H68.1541V5.14875H69.093V7.57872H70.7498V8.32428H69.093V13.2118C69.1114 13.4695 69.2035 13.6628 69.3691 13.7917C69.544 13.9206 69.7419 13.985 69.9628 13.985C70.2205 13.985 70.4553 13.9436 70.667 13.8607C70.8787 13.7687 71.0075 13.7043 71.0535 13.6674L71.3021 14.4268ZM72.4061 11.8035V7.57872H73.3449V11.6379C73.3449 12.4571 73.483 13.0692 73.7591 13.4741C74.0444 13.8791 74.4632 14.0816 75.0155 14.0816C75.3837 14.0816 75.7381 14.0034 76.0786 13.8469C76.4284 13.6812 76.7367 13.4511 77.0037 13.1566C77.2706 12.8529 77.4731 12.5031 77.6111 12.1073V7.57872H78.55V13.6398C78.55 13.7687 78.5776 13.8653 78.6328 13.9298C78.6881 13.985 78.7709 14.0172 78.8814 14.0264V14.772C78.7709 14.7812 78.6835 14.7858 78.619 14.7858C78.5546 14.795 78.4948 14.7996 78.4395 14.7996C78.2555 14.7812 78.0944 14.7075 77.9563 14.5787C77.8275 14.4498 77.7584 14.2933 77.7492 14.1093L77.7216 13.1428C77.4087 13.6951 76.9806 14.1277 76.4376 14.4406C75.9037 14.7536 75.3239 14.91 74.698 14.91C73.9432 14.91 73.3725 14.6477 72.9859 14.1231C72.5993 13.5984 72.4061 12.8252 72.4061 11.8035ZM80.1895 11.1961C80.1895 10.5149 80.3276 9.89363 80.6037 9.33216C80.8891 8.76149 81.2803 8.30587 81.7773 7.9653C82.2743 7.62474 82.8404 7.45446 83.4755 7.45446C84.0738 7.45446 84.6077 7.61554 85.0771 7.93769C85.5557 8.25064 85.9285 8.63262 86.1954 9.08364V4.69313H87.1343V13.6398C87.1343 13.7687 87.1619 13.8653 87.2171 13.9298C87.2723 13.985 87.3552 14.0172 87.4656 14.0264V14.772C87.2815 14.7996 87.1389 14.8088 87.0376 14.7996C86.8443 14.7904 86.6741 14.7121 86.5268 14.5649C86.3795 14.4176 86.3059 14.2565 86.3059 14.0816V13.3775C86.0205 13.8469 85.634 14.2197 85.1461 14.4958C84.6583 14.772 84.152 14.91 83.6274 14.91C83.1303 14.91 82.6701 14.8088 82.2467 14.6063C81.8325 14.4038 81.469 14.1277 81.156 13.7779C80.8523 13.4281 80.6129 13.0323 80.4381 12.5905C80.2724 12.1395 80.1895 11.6747 80.1895 11.1961ZM86.1954 12.3006V10.0777C86.0758 9.74636 85.8825 9.44722 85.6155 9.18029C85.3486 8.90416 85.0449 8.68785 84.7043 8.53138C84.3729 8.3657 84.0416 8.28286 83.7102 8.28286C83.3236 8.28286 82.9739 8.3657 82.6609 8.53138C82.348 8.68785 82.0764 8.90416 81.8463 9.18029C81.6254 9.45642 81.4551 9.76937 81.3355 10.1191C81.2158 10.4689 81.156 10.8279 81.156 11.1961C81.156 11.5826 81.2204 11.9508 81.3493 12.3006C81.4874 12.6504 81.6807 12.9633 81.9292 13.2394C82.1777 13.5064 82.463 13.7135 82.7852 13.8607C83.1073 14.008 83.4571 14.0816 83.8345 14.0816C84.0738 14.0816 84.3223 14.0356 84.58 13.9436C84.8378 13.8515 85.0817 13.7273 85.3118 13.5708C85.5511 13.4051 85.749 13.2118 85.9055 12.9909C86.062 12.77 86.1586 12.5399 86.1954 12.3006ZM92.368 14.91C91.8525 14.91 91.3739 14.8134 90.9321 14.6201C90.4903 14.4176 90.1083 14.1461 89.7861 13.8055C89.464 13.4557 89.2108 13.0553 89.0267 12.6043C88.8519 12.1533 88.7644 11.6701 88.7644 11.1546C88.7644 10.4827 88.9163 9.86602 89.22 9.30455C89.533 8.74308 89.961 8.29666 90.5041 7.9653C91.0471 7.62474 91.6638 7.45446 92.3541 7.45446C93.0629 7.45446 93.6796 7.62474 94.2042 7.9653C94.7381 8.30587 95.1569 8.75688 95.4606 9.31835C95.7644 9.87062 95.9163 10.4781 95.9163 11.1408C95.9163 11.2145 95.9163 11.2881 95.9163 11.3617C95.9163 11.4262 95.9117 11.4768 95.9025 11.5136H89.7447C89.7907 12.0291 89.9334 12.4893 90.1727 12.8943C90.4212 13.2901 90.7388 13.6076 91.1254 13.8469C91.5211 14.077 91.9492 14.1921 92.4094 14.1921C92.8788 14.1921 93.3206 14.0724 93.7348 13.8331C94.1582 13.5938 94.4528 13.2809 94.6184 12.8943L95.433 13.1152C95.2858 13.4557 95.0602 13.7641 94.7565 14.0402C94.4528 14.3164 94.0938 14.5327 93.6796 14.6891C93.2746 14.8364 92.8374 14.91 92.368 14.91ZM89.7171 10.8371H95.0326C94.9958 10.3124 94.8531 9.85221 94.6046 9.45642C94.3653 9.06063 94.0478 8.75228 93.652 8.53138C93.2654 8.30127 92.8374 8.18621 92.368 8.18621C91.8985 8.18621 91.4705 8.30127 91.0839 8.53138C90.6974 8.75228 90.3798 9.06523 90.1313 9.47023C89.892 9.86602 89.7539 10.3216 89.7171 10.8371ZM103.412 14.772H102.473V10.7542C102.473 9.90744 102.349 9.29074 102.1 8.90416C101.852 8.50837 101.461 8.31047 100.927 8.31047C100.559 8.31047 100.195 8.40251 99.8362 8.5866C99.4772 8.76149 99.1596 9.0054 98.8835 9.31835C98.6166 9.6221 98.4233 9.97187 98.3036 10.3677V14.772H97.3648V7.57872H98.2208V9.2079C98.4141 8.85813 98.6672 8.55439 98.9801 8.29666C99.2931 8.02974 99.6475 7.82264 100.043 7.67537C100.439 7.52809 100.849 7.45446 101.272 7.45446C101.668 7.45446 102.004 7.52809 102.28 7.67537C102.556 7.82264 102.777 8.03434 102.943 8.31047C103.108 8.5774 103.228 8.90416 103.302 9.29074C103.375 9.66812 103.412 10.0915 103.412 10.561V14.772ZM108.798 14.4268C108.725 14.4544 108.61 14.505 108.453 14.5787C108.297 14.6523 108.108 14.7167 107.887 14.772C107.666 14.8272 107.427 14.8548 107.169 14.8548C106.902 14.8548 106.649 14.8042 106.41 14.7029C106.18 14.6017 105.996 14.4498 105.858 14.2473C105.72 14.0356 105.65 13.7779 105.65 13.4741V8.32428H104.656V7.57872H105.65V5.14875H106.589V7.57872H108.246V8.32428H106.589V13.2118C106.608 13.4695 106.7 13.6628 106.865 13.7917C107.04 13.9206 107.238 13.985 107.459 13.985C107.717 13.985 107.952 13.9436 108.163 13.8607C108.375 13.7687 108.504 13.7043 108.55 13.6674L108.798 14.4268ZM66.7371 21.8253H63.2441V30.772H62.2776V21.8253H58.7845V20.9693H66.7371V21.8253ZM69.5681 30.91C69.0527 30.91 68.5741 30.8134 68.1323 30.6201C67.6904 30.4176 67.3085 30.1461 66.9863 29.8055C66.6641 29.4557 66.411 29.0553 66.2269 28.6043C66.0521 28.1533 65.9646 27.6701 65.9646 27.1546C65.9646 26.4827 66.1165 25.866 66.4202 25.3045C66.7332 24.7431 67.1612 24.2967 67.7042 23.9653C68.2473 23.6247 68.864 23.4545 69.5543 23.4545C70.2631 23.4545 70.8798 23.6247 71.4044 23.9653C71.9383 24.3059 72.3571 24.7569 72.6608 25.3184C72.9646 25.8706 73.1164 26.4781 73.1164 27.1408C73.1164 27.2145 73.1164 27.2881 73.1164 27.3617C73.1164 27.4262 73.1118 27.4768 73.1026 27.5136H66.9449C66.9909 28.0291 67.1336 28.4893 67.3729 28.8943C67.6214 29.2901 67.939 29.6076 68.3255 29.8469C68.7213 30.077 69.1493 30.1921 69.6096 30.1921C70.079 30.1921 70.5208 30.0724 70.935 29.8331C71.3584 29.5938 71.6529 29.2809 71.8186 28.8943L72.6332 29.1152C72.4859 29.4557 72.2604 29.7641 71.9567 30.0402C71.6529 30.3164 71.294 30.5327 70.8798 30.6891C70.4748 30.8364 70.0376 30.91 69.5681 30.91ZM66.9173 26.8371H72.2328C72.196 26.3124 72.0533 25.8522 71.8048 25.4564C71.5655 25.0606 71.2479 24.7523 70.8522 24.5314C70.4656 24.3013 70.0376 24.1862 69.5681 24.1862C69.0987 24.1862 68.6707 24.3013 68.2841 24.5314C67.8975 24.7523 67.58 25.0652 67.3315 25.4702C67.0922 25.866 66.9541 26.3216 66.9173 26.8371ZM77.6853 30.91C77.1606 30.91 76.6774 30.8134 76.2356 30.6201C75.8029 30.4176 75.421 30.1415 75.0896 29.7917C74.7675 29.4419 74.5143 29.0415 74.3302 28.5905C74.1554 28.1395 74.0679 27.6609 74.0679 27.1546C74.0679 26.4735 74.2198 25.8522 74.5235 25.2907C74.8273 24.7293 75.2507 24.2829 75.7937 23.9515C76.3368 23.6201 76.9627 23.4545 77.6714 23.4545C78.3434 23.4545 78.9371 23.6109 79.4525 23.9239C79.9679 24.2276 80.3499 24.6418 80.5985 25.1665L79.6872 25.4564C79.4847 25.0882 79.1994 24.8029 78.8312 24.6004C78.4722 24.3887 78.0718 24.2829 77.63 24.2829C77.1514 24.2829 76.7142 24.4071 76.3184 24.6556C75.9226 24.9042 75.6051 25.2447 75.3657 25.6773C75.1356 26.1099 75.0206 26.6024 75.0206 27.1546C75.0206 27.6977 75.1402 28.1901 75.3795 28.6319C75.6189 29.0738 75.9364 29.4281 76.3322 29.6951C76.728 29.9528 77.1652 30.0816 77.6438 30.0816C77.9568 30.0816 78.2559 30.0264 78.5413 29.916C78.8358 29.8055 79.0889 29.6582 79.3006 29.4741C79.5215 29.2809 79.6688 29.0738 79.7424 28.8529L80.6675 29.129C80.5386 29.4695 80.3223 29.7779 80.0186 30.054C79.724 30.321 79.3743 30.5327 78.9693 30.6891C78.5735 30.8364 78.1455 30.91 77.6853 30.91ZM88.1897 30.772H87.2509V26.7542C87.2509 25.9443 87.1082 25.3368 86.8229 24.9318C86.5375 24.5176 86.1279 24.3105 85.5941 24.3105C85.2443 24.3105 84.8945 24.4025 84.5448 24.5866C84.2042 24.7615 83.9005 25.0054 83.6335 25.3184C83.3758 25.6221 83.1917 25.9719 83.0813 26.3677V30.772H82.1424V20.6931H83.0813V25.2079C83.3666 24.674 83.7624 24.2506 84.2686 23.9377C84.7841 23.6155 85.3318 23.4545 85.9116 23.4545C86.3258 23.4545 86.6756 23.5281 86.9609 23.6754C87.2555 23.8226 87.4902 24.0389 87.6651 24.3243C87.8492 24.6004 87.9826 24.9272 88.0655 25.3045C88.1483 25.6727 88.1897 26.0915 88.1897 26.561V30.772ZM96.2391 30.772H95.3002V26.7542C95.3002 25.9074 95.176 25.2907 94.9275 24.9042C94.6789 24.5084 94.2878 24.3105 93.7539 24.3105C93.3857 24.3105 93.0221 24.4025 92.6632 24.5866C92.3042 24.7615 91.9867 25.0054 91.7105 25.3184C91.4436 25.6221 91.2503 25.9719 91.1306 26.3677V30.772H90.1918V23.5787H91.0478V25.2079C91.2411 24.8581 91.4942 24.5544 91.8072 24.2967C92.1201 24.0297 92.4745 23.8226 92.8703 23.6754C93.2661 23.5281 93.6757 23.4545 94.0991 23.4545C94.4949 23.4545 94.8308 23.5281 95.107 23.6754C95.3831 23.8226 95.604 24.0343 95.7697 24.3105C95.9353 24.5774 96.055 24.9042 96.1286 25.2907C96.2023 25.6681 96.2391 26.0915 96.2391 26.561V30.772ZM98.2412 30.772V23.5787H99.18V30.772H98.2412ZM98.2412 22.0738V20.6931H99.18V22.0738H98.2412ZM104.368 30.91C103.844 30.91 103.36 30.8134 102.918 30.6201C102.486 30.4176 102.104 30.1415 101.773 29.7917C101.45 29.4419 101.197 29.0415 101.013 28.5905C100.838 28.1395 100.751 27.6609 100.751 27.1546C100.751 26.4735 100.903 25.8522 101.206 25.2907C101.51 24.7293 101.934 24.2829 102.477 23.9515C103.02 23.6201 103.646 23.4545 104.354 23.4545C105.026 23.4545 105.62 23.6109 106.135 23.9239C106.651 24.2276 107.033 24.6418 107.281 25.1665L106.37 25.4564C106.168 25.0882 105.882 24.8029 105.514 24.6004C105.155 24.3887 104.755 24.2829 104.313 24.2829C103.834 24.2829 103.397 24.4071 103.001 24.6556C102.606 24.9042 102.288 25.2447 102.049 25.6773C101.819 26.1099 101.703 26.6024 101.703 27.1546C101.703 27.6977 101.823 28.1901 102.062 28.6319C102.302 29.0738 102.619 29.4281 103.015 29.6951C103.411 29.9528 103.848 30.0816 104.327 30.0816C104.64 30.0816 104.939 30.0264 105.224 29.916C105.519 29.8055 105.772 29.6582 105.984 29.4741C106.204 29.2809 106.352 29.0738 106.425 28.8529L107.35 29.129C107.222 29.4695 107.005 29.7779 106.701 30.054C106.407 30.321 106.057 30.5327 105.652 30.6891C105.256 30.8364 104.828 30.91 104.368 30.91ZM108.245 28.701C108.245 28.25 108.374 27.8634 108.632 27.5412C108.89 27.2099 109.244 26.9567 109.695 26.7819C110.155 26.5978 110.685 26.5057 111.283 26.5057C111.633 26.5057 111.996 26.5333 112.374 26.5886C112.751 26.6438 113.087 26.7266 113.382 26.8371V26.2296C113.382 25.6221 113.202 25.1389 112.843 24.7799C112.484 24.4209 111.987 24.2414 111.352 24.2414C110.965 24.2414 110.583 24.3151 110.206 24.4623C109.838 24.6004 109.451 24.8075 109.046 25.0836L108.687 24.4209C109.157 24.0988 109.617 23.8595 110.068 23.703C110.519 23.5373 110.979 23.4545 111.449 23.4545C112.332 23.4545 113.032 23.7076 113.547 24.2138C114.063 24.7201 114.32 25.4196 114.32 26.3124V29.6398C114.32 29.7687 114.348 29.8653 114.403 29.9298C114.458 29.985 114.546 30.0172 114.666 30.0264V30.772C114.564 30.7812 114.477 30.7904 114.403 30.7996C114.33 30.8088 114.274 30.8088 114.238 30.7996C114.007 30.7904 113.833 30.7167 113.713 30.5787C113.593 30.4406 113.529 30.2933 113.52 30.1369L113.506 29.6122C113.184 30.0264 112.765 30.3486 112.249 30.5787C111.734 30.7996 111.209 30.91 110.675 30.91C110.215 30.91 109.796 30.8134 109.419 30.6201C109.051 30.4176 108.761 30.1507 108.549 29.8193C108.347 29.4788 108.245 29.106 108.245 28.701ZM113.064 29.2532C113.165 29.1244 113.243 29.0001 113.299 28.8805C113.354 28.7608 113.382 28.655 113.382 28.5629V27.5136C113.069 27.394 112.742 27.3019 112.401 27.2375C112.07 27.173 111.734 27.1408 111.393 27.1408C110.721 27.1408 110.178 27.2743 109.764 27.5412C109.35 27.8081 109.143 28.1717 109.143 28.6319C109.143 28.8989 109.212 29.152 109.35 29.3913C109.488 29.6214 109.691 29.8147 109.957 29.9712C110.224 30.1185 110.537 30.1921 110.896 30.1921C111.347 30.1921 111.766 30.1047 112.153 29.9298C112.549 29.7549 112.852 29.5294 113.064 29.2532ZM116.39 20.6931H117.329V29.1428C117.329 29.5018 117.394 29.7365 117.522 29.8469C117.651 29.9574 117.808 30.0126 117.992 30.0126C118.158 30.0126 118.323 29.9942 118.489 29.9574C118.655 29.9206 118.797 29.8837 118.917 29.8469L119.083 30.6063C118.908 30.6799 118.691 30.7398 118.434 30.7858C118.185 30.8318 117.969 30.8548 117.785 30.8548C117.361 30.8548 117.021 30.7306 116.763 30.482C116.515 30.2335 116.39 29.893 116.39 29.4603V20.6931ZM59.1297 41.8016C59.1297 41.2033 59.2309 40.6188 59.4334 40.0481C59.6451 39.4683 59.9489 38.9436 60.3447 38.4742C60.7405 37.9956 61.2283 37.6182 61.8082 37.342C62.388 37.0567 63.0462 36.914 63.7825 36.914C64.6569 36.914 65.4025 37.1165 66.0192 37.5215C66.6451 37.9173 67.1053 38.4282 67.3999 39.0541L66.6405 39.5235C66.4288 39.0909 66.1619 38.7503 65.8397 38.5018C65.5176 38.2441 65.1724 38.06 64.8042 37.9495C64.4452 37.8391 64.0863 37.7839 63.7273 37.7839C63.1382 37.7839 62.6182 37.9035 62.1671 38.1428C61.7161 38.3729 61.3341 38.6859 61.0212 39.0817C60.7174 39.4683 60.4873 39.9055 60.3309 40.3933C60.1744 40.8719 60.0961 41.3598 60.0961 41.8568C60.0961 42.3999 60.1882 42.9199 60.3723 43.417C60.5564 43.914 60.8141 44.3558 61.1455 44.7424C61.4768 45.1198 61.8634 45.4235 62.3052 45.6536C62.7562 45.8745 63.2441 45.985 63.7687 45.985C64.1369 45.985 64.5143 45.9206 64.9009 45.7917C65.2874 45.6628 65.6464 45.4649 65.9778 45.198C66.3183 44.9311 66.5899 44.5859 66.7924 44.1625L67.5931 44.5767C67.3906 45.0646 67.0777 45.4788 66.6543 45.8193C66.2309 46.1599 65.7569 46.4176 65.2322 46.5925C64.7168 46.7674 64.2105 46.8548 63.7135 46.8548C63.0416 46.8548 62.4249 46.7121 61.8634 46.4268C61.3019 46.1323 60.8141 45.7457 60.3999 45.2671C59.9949 44.7792 59.6819 44.2362 59.461 43.6379C59.2401 43.0304 59.1297 42.4183 59.1297 41.8016ZM72.1155 46.91C71.6 46.91 71.1214 46.8134 70.6796 46.6201C70.247 46.4176 69.8696 46.1461 69.5474 45.8055C69.2345 45.4557 68.9906 45.06 68.8157 44.6181C68.6408 44.1671 68.5534 43.6931 68.5534 43.1961C68.5534 42.6806 68.6408 42.202 68.8157 41.7602C68.9906 41.3091 69.2391 40.9134 69.5612 40.5728C69.8834 40.223 70.2608 39.9515 70.6934 39.7582C71.1352 39.5557 71.6138 39.4545 72.1293 39.4545C72.6447 39.4545 73.1187 39.5557 73.5514 39.7582C73.984 39.9515 74.3613 40.223 74.6835 40.5728C75.0057 40.9134 75.2542 41.3091 75.4291 41.7602C75.6039 42.202 75.6914 42.6806 75.6914 43.1961C75.6914 43.6931 75.6039 44.1671 75.4291 44.6181C75.2542 45.06 75.0057 45.4557 74.6835 45.8055C74.3705 46.1461 73.9932 46.4176 73.5514 46.6201C73.1187 46.8134 72.6401 46.91 72.1155 46.91ZM69.506 43.2099C69.506 43.7437 69.6211 44.2316 69.8512 44.6734C70.0905 45.106 70.408 45.4511 70.8038 45.7089C71.1996 45.9574 71.6368 46.0816 72.1155 46.0816C72.5941 46.0816 73.0313 45.9528 73.4271 45.6951C73.8229 45.4373 74.1404 45.0876 74.3798 44.6458C74.6191 44.1947 74.7387 43.7069 74.7387 43.1822C74.7387 42.6484 74.6191 42.1606 74.3798 41.7187C74.1404 41.2769 73.8229 40.9272 73.4271 40.6694C73.0313 40.4117 72.5941 40.2829 72.1155 40.2829C71.6368 40.2829 71.1996 40.4163 70.8038 40.6832C70.4172 40.9502 70.1043 41.3045 69.865 41.7464C69.6257 42.179 69.506 42.6668 69.506 43.2099ZM87.9617 46.772H87.0228V42.7542C87.0228 41.9166 86.8894 41.2999 86.6225 40.9042C86.3555 40.5084 85.9597 40.3105 85.4351 40.3105C84.892 40.3105 84.4042 40.5038 83.9716 40.8903C83.5482 41.2769 83.249 41.774 83.0742 42.3815V46.772H82.1353V42.7542C82.1353 41.9074 82.0064 41.2907 81.7487 40.9042C81.491 40.5084 81.0952 40.3105 80.5613 40.3105C80.0275 40.3105 79.5443 40.4992 79.1116 40.8765C78.679 41.2539 78.3753 41.751 78.2004 42.3677V46.772H77.2616V39.5787H78.1176V41.2079C78.4213 40.6464 78.8079 40.2138 79.2773 39.9101C79.756 39.6063 80.2852 39.4545 80.8651 39.4545C81.4634 39.4545 81.9466 39.6247 82.3148 39.9653C82.683 40.3059 82.9085 40.7523 82.9913 41.3045C83.3227 40.6971 83.7185 40.2368 84.1787 39.9239C84.6481 39.6109 85.1774 39.4545 85.7664 39.4545C86.1714 39.4545 86.512 39.5281 86.7881 39.6754C87.0735 39.8226 87.299 40.0343 87.4647 40.3105C87.6395 40.5774 87.7638 40.9042 87.8374 41.2907C87.9203 41.6681 87.9617 42.0915 87.9617 42.561V46.772ZM100.649 46.772H99.7104V42.7542C99.7104 41.9166 99.5769 41.2999 99.31 40.9042C99.0431 40.5084 98.6473 40.3105 98.1226 40.3105C97.5796 40.3105 97.0917 40.5038 96.6591 40.8903C96.2357 41.2769 95.9366 41.774 95.7617 42.3815V46.772H94.8228V42.7542C94.8228 41.9074 94.694 41.2907 94.4363 40.9042C94.1785 40.5084 93.7827 40.3105 93.2489 40.3105C92.715 40.3105 92.2318 40.4992 91.7992 40.8765C91.3666 41.2539 91.0628 41.751 90.8879 42.3677V46.772H89.9491V39.5787H90.8051V41.2079C91.1089 40.6464 91.4954 40.2138 91.9649 39.9101C92.4435 39.6063 92.9727 39.4545 93.5526 39.4545C94.1509 39.4545 94.6341 39.6247 95.0023 39.9653C95.3705 40.3059 95.596 40.7523 95.6788 41.3045C96.0102 40.6971 96.406 40.2368 96.8662 39.9239C97.3356 39.6109 97.8649 39.4545 98.454 39.4545C98.859 39.4545 99.1995 39.5281 99.4757 39.6754C99.761 39.8226 99.9865 40.0343 100.152 40.3105C100.327 40.5774 100.451 40.9042 100.525 41.2907C100.608 41.6681 100.649 42.0915 100.649 42.561V46.772ZM102.568 43.8035V39.5787H103.506V43.6379C103.506 44.4571 103.645 45.0692 103.921 45.4741C104.206 45.8791 104.625 46.0816 105.177 46.0816C105.545 46.0816 105.9 46.0034 106.24 45.8469C106.59 45.6812 106.898 45.4511 107.165 45.1566C107.432 44.8529 107.635 44.5031 107.773 44.1073V39.5787H108.712V45.6398C108.712 45.7687 108.739 45.8653 108.794 45.9298C108.85 45.985 108.932 46.0172 109.043 46.0264V46.772C108.932 46.7812 108.845 46.7858 108.781 46.7858C108.716 46.795 108.656 46.7996 108.601 46.7996C108.417 46.7812 108.256 46.7075 108.118 46.5787C107.989 46.4498 107.92 46.2933 107.911 46.1093L107.883 45.1428C107.57 45.6951 107.142 46.1277 106.599 46.4406C106.065 46.7536 105.485 46.91 104.859 46.91C104.105 46.91 103.534 46.6477 103.147 46.1231C102.761 45.5984 102.568 44.8252 102.568 43.8035ZM116.882 46.772H115.943V42.7542C115.943 41.9074 115.819 41.2907 115.57 40.9042C115.321 40.5084 114.93 40.3105 114.396 40.3105C114.028 40.3105 113.665 40.4025 113.306 40.5866C112.947 40.7615 112.629 41.0054 112.353 41.3184C112.086 41.6221 111.893 41.9719 111.773 42.3677V46.772H110.834V39.5787H111.69V41.2079C111.884 40.8581 112.137 40.5544 112.45 40.2967C112.763 40.0297 113.117 39.8226 113.513 39.6754C113.909 39.5281 114.318 39.4545 114.742 39.4545C115.137 39.4545 115.473 39.5281 115.749 39.6754C116.026 39.8226 116.247 40.0343 116.412 40.3105C116.578 40.5774 116.698 40.9042 116.771 41.2907C116.845 41.6681 116.882 42.0915 116.882 42.561V46.772ZM118.884 46.772V39.5787H119.823V46.772H118.884ZM118.884 38.0738V36.6931H119.823V38.0738H118.884ZM125.342 46.4268C125.268 46.4544 125.153 46.505 124.997 46.5787C124.84 46.6523 124.652 46.7167 124.431 46.772C124.21 46.8272 123.971 46.8548 123.713 46.8548C123.446 46.8548 123.193 46.8042 122.954 46.7029C122.723 46.6017 122.539 46.4498 122.401 46.2473C122.263 46.0356 122.194 45.7779 122.194 45.4741V40.3243H121.2V39.5787H122.194V37.1488H123.133V39.5787H124.79V40.3243H123.133V45.2118C123.151 45.4695 123.243 45.6628 123.409 45.7917C123.584 45.9206 123.782 45.985 124.003 45.985C124.261 45.985 124.495 45.9436 124.707 45.8607C124.919 45.7687 125.048 45.7043 125.094 45.6674L125.342 46.4268ZM126.929 48.981C127.058 48.9902 127.182 48.9948 127.302 48.9948C127.422 49.004 127.509 48.9994 127.564 48.981C127.675 48.9626 127.781 48.8982 127.882 48.7877C127.983 48.6773 128.103 48.4656 128.241 48.1526C128.379 47.8397 128.572 47.3795 128.821 46.772L125.687 39.5787H126.681L129.318 45.8055L131.748 39.5787H132.687L128.959 48.8568C128.894 49.0317 128.798 49.1927 128.669 49.34C128.54 49.4965 128.379 49.6161 128.186 49.699C128.002 49.791 127.771 49.8416 127.495 49.8509C127.413 49.8601 127.325 49.8601 127.233 49.8509C127.15 49.8509 127.049 49.8416 126.929 49.8232V48.981Z" fill="black"/>
</svg>
